<svg xmlns="http://www.w3.org/2000/svg" xmlns:xlink="http://www.w3.org/1999/xlink" width="146.288" height="26.837" viewBox="0 0 146.288 26.837">
  <defs>
    <style>
      .cls-1 {
        fill: url(#linear-gradient);
      }
    </style>
    <linearGradient id="linear-gradient" x1="0.5" x2="0.5" y2="1" gradientUnits="objectBoundingBox">
      <stop offset="0" stop-color="#68d4e5"/>
      <stop offset="0.402" stop-color="#5561ff"/>
      <stop offset="1" stop-color="#2d6675"/>
    </linearGradient>
  </defs>
  <path id="パス_7" data-name="パス 7" class="cls-1" d="M2.46,13.259c-2.2-.926,21.1-12.2,18.552-14.069a35.237,35.237,0,0,1-6.366-5.869,29.915,29.915,0,0,1-6.2,5.993A36.376,36.376,0,0,1,1.053,3.773L.1,2.121a36.1,36.1,0,0,0,7.1-4.4,23.163,23.163,0,0,0,5.825-5.891h3.143a30.294,30.294,0,0,0,6.146,5.781,32.226,32.226,0,0,0,7.14,4.115ZM7.192,2.18V.411h15.26V2.18Zm7.352,16.342L13.389,16.9a21.365,21.365,0,0,0,5.481-3.64,14.415,14.415,0,0,0,4.107-5.525H3.158V5.965H25.639L26,6.389a16.505,16.505,0,0,1-4.612,7.433A21.177,21.177,0,0,1,14.544,18.522Zm16.108-7.849V8.933h2.529V-3.536H31.237v-1.71h1.944V-7.921h2.207v2.675h6.081V-7.921h2.193v2.675h2.076v1.71H43.661V8.933l1.827-7.791.278,9.53ZM35.388-3.536v3h6.081v-3Zm0,4.648V4.08h6.081V1.113Zm0,7.82h6.081V5.659H35.388Zm19.85-.862H49.464a18.806,18.806,0,0,1-3.976,10.378L44,17.264a16.456,16.456,0,0,0,2.587-5.511,32.517,32.517,0,0,0,.862-8.288V-7.219H57.46v23.08a2,2,0,0,1-.7,1.586,2.445,2.445,0,0,1-1.652.607H51.628L51.35,16.08h2.66q1.228,0,1.228-1.038ZM49.713-.539h5.525V-5.48H49.713Zm-.1,6.841h5.628V1.113H49.713V2.6Q49.713,4.548,49.611,6.3ZM42.96,16.11a17.917,17.917,0,0,1-3.172-3.947l1.769-.95a24.031,24.031,0,0,0,2.953,3.552ZM31.076,18.332l-1.155-1.345a20.334,20.334,0,0,0,2.719-2.609,16.673,16.673,0,0,0,2.222-3.062l1.988.789a21.443,21.443,0,0,1-2.711,3.545A15.18,15.18,0,0,1,31.076,18.332Zm33.385.073V3.261a30.2,30.2,0,0,1-3.113,4.721L59.886,6.8A38.068,38.068,0,0,0,64.169-.649a33.862,33.862,0,0,0,2.616-7.667l2.295.336A44.7,44.7,0,0,1,65.821.659l6.855,17.862L66.669,18.4Zm19.207-.365H79.239l-.307-2.046h3.83a1.51,1.51,0,0,0,1.031-.351,1.086,1.086,0,0,0,.4-.848V-5.144H70.031V-7h18.8v1.856h-2.31V15.437a2.432,2.432,0,0,1-.8,1.864A2.9,2.9,0,0,1,83.668,18.039ZM72.676,10.555v1.608H70.425V-.627h9.793V10.555Zm5.291-9.413H72.676V8.787h5.291ZM91.108,18.419l-.541-1.681a13.048,13.048,0,0,0,6.168-2.317,7.035,7.035,0,0,0,2.806-5.284H94.558V-7.511h20.274V9.137h-6.285v5.8a.984.984,0,0,0,.5.928,8.287,8.287,0,0,0,2.916.285q.234,0,1.447-.066a7.885,7.885,0,0,0,1.52-.168,1.146,1.146,0,0,0,.548-.424,2.852,2.852,0,0,0,.38-1.177A19.072,19.072,0,0,0,116,11.578l1.915.307v3.537a2.11,2.11,0,0,1-.745,1.725,3.872,3.872,0,0,1-2.222.716q-1.476.1-2.733.1-.862,0-2.331-.058a13.95,13.95,0,0,1-1.856-.146,2.144,2.144,0,0,1-.8-.4,2.174,2.174,0,0,1-.658-.826,2.785,2.785,0,0,1-.241-1.2v-6.2h-4.458a10.423,10.423,0,0,1-1.44,4.422,9.841,9.841,0,0,1-3.523,3.07A15.653,15.653,0,0,1,91.108,18.419ZM96.736-2.5l7.724-3.333L112.669-2.5V-5.831H96.736Zm0,4.882h15.933V-.875H96.736Zm15.933,1.564L104.46,7.486,96.736,3.948V7.486h15.933ZM138.512,15.51q5.481-1.316,5.481-5.642a4.808,4.808,0,0,0-2.017-4.137A8.975,8.975,0,0,0,136.6,4.27a17.48,17.48,0,0,0-4.509.585,19.038,19.038,0,0,0-5.058,2.383,39.413,39.413,0,0,0-3.983,2.748l-1.082-1.8q8.9-5.745,17.394-12.088l-14.792.058V-5.787h17.847L143.438-4.3,133.133,2.837l.117.175a12.186,12.186,0,0,1,3.552-.541A11.561,11.561,0,0,1,143.693,4.4a6.2,6.2,0,0,1,2.7,5.335,6.778,6.778,0,0,1-3.3,6.088,16.369,16.369,0,0,1-8.858,2.1q-7.63,0-7.63-4.2a3.323,3.323,0,0,1,1.579-2.777,5.838,5.838,0,0,1,3.464-1.126c1.764,0,9.077-5.077,10.334-4.093S138.21,13.688,138.512,15.51Zm-2.149.38q-.848-4.2-4.561-4.2a3.953,3.953,0,0,0-2.127.585,1.762,1.762,0,0,0-.943,1.549q0,2.236,5.174,2.236A18.879,18.879,0,0,0,136.363,15.89Z" transform="translate(-0.103 8.315)"/>
</svg>
