<svg xmlns="http://www.w3.org/2000/svg" xmlns:xlink="http://www.w3.org/1999/xlink" width="175.651" height="32.224" viewBox="0 0 175.651 32.224">
  <defs>
    <style>
      .cls-1 {
        fill: url(#linear-gradient);
      }
    </style>
    <linearGradient id="linear-gradient" x1="0.5" x2="0.5" y2="1" gradientUnits="objectBoundingBox">
      <stop offset="0" stop-color="#68d4e5"/>
      <stop offset="0.402" stop-color="#5561ff"/>
      <stop offset="1" stop-color="#2d6675"/>
    </linearGradient>
  </defs>
  <path id="パス_7" data-name="パス 7" class="cls-1" d="M2.934,17.59C.289,16.478,28.269,2.938,25.209.7A42.309,42.309,0,0,1,17.566-6.35a35.919,35.919,0,0,1-7.45,7.2A43.678,43.678,0,0,1,1.243,6.2L.1,4.216A43.349,43.349,0,0,0,8.624-1.067,27.813,27.813,0,0,0,15.618-8.14h3.773A36.375,36.375,0,0,0,26.771-1.2a38.7,38.7,0,0,0,8.574,4.941Zm5.681-13.3V2.163H26.938V4.286Zm8.828,19.622L16.056,21.96a25.653,25.653,0,0,0,6.582-4.37,17.309,17.309,0,0,0,4.932-6.634H3.771V8.832H30.764l.439.509a19.818,19.818,0,0,1-5.537,8.925A25.428,25.428,0,0,1,17.443,23.908Zm19.341-9.425V12.395h3.036V-2.576H37.486V-4.63h2.334V-7.842h2.65V-4.63h7.3V-7.842H52.4V-4.63H54.9v2.053H52.4V12.395L54.6,3.04l.333,11.443Zm5.687-17.06v3.6h7.3v-3.6Zm0,5.581V6.568h7.3V3.005Zm0,9.39h7.3V8.463h-7.3Zm23.834-1.036H59.372A22.581,22.581,0,0,1,54.6,23.821L52.808,22.4a19.759,19.759,0,0,0,3.107-6.617A39.044,39.044,0,0,0,56.95,5.831V-7H68.973V20.714a2.4,2.4,0,0,1-.842,1.9,2.936,2.936,0,0,1-1.983.728H61.97l-.333-2.369h3.194q1.474,0,1.474-1.246ZM59.671,1.022h6.634V-4.911H59.671Zm-.123,8.214h6.757V3.005H59.671V4.8Q59.671,7.129,59.548,9.236ZM51.562,21.012a21.513,21.513,0,0,1-3.809-4.739l2.124-1.141A28.854,28.854,0,0,0,53.423,19.4ZM37.293,23.68l-1.387-1.615a24.415,24.415,0,0,0,3.264-3.133,20.019,20.019,0,0,0,2.668-3.677l2.387.948A25.747,25.747,0,0,1,40.97,20.46,18.227,18.227,0,0,1,37.293,23.68Zm40.087.088V5.585a36.258,36.258,0,0,1-3.738,5.669L71.886,9.832A45.709,45.709,0,0,0,77.029.89,40.659,40.659,0,0,0,80.17-8.315l2.756.4A53.67,53.67,0,0,1,79.012,2.461l8.231,21.447-7.213-.14Zm23.062-.439H95.124l-.369-2.457h4.6a1.813,1.813,0,0,0,1.237-.421,1.3,1.3,0,0,0,.483-1.018V-4.507H84.067V-6.736h22.571v2.229h-2.773V20.205a2.92,2.92,0,0,1-.957,2.238A3.484,3.484,0,0,1,100.442,23.329Zm-13.2-8.986v1.931h-2.7V.916H96.3V14.343ZM93.6,3.04H87.243v9.179H93.6Zm15.778,20.745-.649-2.018a15.666,15.666,0,0,0,7.407-2.782,8.447,8.447,0,0,0,3.37-6.345h-5.985V-7.35h24.343V12.641h-7.547v6.968a1.182,1.182,0,0,0,.606,1.114,9.951,9.951,0,0,0,3.5.342q.281,0,1.738-.079a9.468,9.468,0,0,0,1.825-.2,1.377,1.377,0,0,0,.658-.509,3.425,3.425,0,0,0,.456-1.413,22.9,22.9,0,0,0,.167-3.291l2.3.369v4.247a2.533,2.533,0,0,1-.9,2.071,4.649,4.649,0,0,1-2.668.86q-1.773.123-3.282.123-1.036,0-2.8-.07A16.75,16.75,0,0,1,129.691,23a2.575,2.575,0,0,1-.965-.483,2.611,2.611,0,0,1-.79-.992,3.343,3.343,0,0,1-.29-1.439V12.641h-5.353a12.515,12.515,0,0,1-1.729,5.309,11.817,11.817,0,0,1-4.23,3.686A18.794,18.794,0,0,1,109.375,23.785ZM116.133-1.33l9.274-4,9.857,4v-4H116.133Zm0,5.862h19.131V.618H116.133ZM135.263,6.41l-9.857,4.247L116.133,6.41v4.247h19.131Zm31.03,13.883q6.582-1.58,6.582-6.775a5.773,5.773,0,0,0-2.422-4.967A10.777,10.777,0,0,0,163.994,6.8a20.989,20.989,0,0,0-5.415.7,22.86,22.86,0,0,0-6.073,2.861,47.323,47.323,0,0,0-4.783,3.3l-1.3-2.159q10.689-6.9,20.886-14.515l-17.762.07V-5.279h21.43l1.229,1.79L159.835,5.076l.14.211a14.632,14.632,0,0,1,4.265-.649,13.881,13.881,0,0,1,8.275,2.317,7.443,7.443,0,0,1,3.238,6.406,8.138,8.138,0,0,1-3.967,7.31q-3.967,2.519-10.636,2.519-9.162,0-9.162-5.037a3.99,3.99,0,0,1,1.9-3.335,7.01,7.01,0,0,1,4.16-1.351c2.118,0,10.9-6.1,12.409-4.914S165.931,18.1,166.293,20.293Zm-2.58.456q-1.018-5.037-5.476-5.037a4.746,4.746,0,0,0-2.554.7,2.116,2.116,0,0,0-1.132,1.86q0,2.685,6.213,2.685A22.669,22.669,0,0,0,163.713,20.749Z" transform="translate(-0.103 8.315)"/>
</svg>
